Input #0, mov,mp4,m4a,3gp,3g2,mj2, from '/home/hbattu/projects/huberman-gpt/huberman-audio/mp3/tmpq4d8uiwg.mp4':
  Metadata:
    major_brand     : dash
    minor_version   : 0
    compatible_brands: iso6mp41
    creation_time   : 2021-06-22T16:00:37.000000Z
  Duration: 01:59:40.17, start: 0.000000, bitrate: 129 kb/s
    Stream #0:0(eng): Audio: aac (LC) (mp4a / 0x6134706D), 44100 Hz, stereo, fltp, 0 kb/s (default)
    Metadata:
      creation_time   : 2021-06-22T16:00:37.000000Z
      handler_name    : ISO Media file produced by Google Inc.
Stream mapping:
  Stream #0:0 -> #0:0 (aac (native) -> mp3 (libmp3lame))
Press [q] to stop, [?] for help
[graph_0_in_0_0 @ 0x55e3d5097f80] tb:1/44100 samplefmt:fltp samplerate:44100 chlayout:0x3
Output #0, mp3, to '../huberman-audio/mp3/Mwz8JprPeMc.mp3':
  Metadata:
    major_brand     : dash
    minor_version   : 0
    compatible_brands: iso6mp41
    TSSE            : Lavf58.29.100
    Stream #0:0(eng): Audio: mp3 (libmp3lame), 44100 Hz, stereo, fltp, delay 1105 (default)
    Metadata:
      creation_time   : 2021-06-22T16:00:37.000000Z
      handler_name    : ISO Media file produced by Google Inc.
      encoder         : Lavc58.54.100 libmp3lame
No more output streams to write to, finishing.
size=  112191kB time=01:59:40.17 bitrate= 128.0kbits/s speed=84.9x    
[AVIOContext @ 0x55e3d4f88900] Statistics: 0 seeks, 170 writeouts
video:0kB audio:112191kB subtitle:0kB other streams:0kB global headers:0kB muxing overhead: 0.000301%
Input file #0 (/home/hbattu/projects/huberman-gpt/huberman-audio/mp3/tmpq4d8uiwg.mp4):
  Input stream #0:0 (audio): 309224 packets read (114882676 bytes); 309224 frames decoded (316645376 samples); 
  Total: 309224 packets (114882676 bytes) demuxed
Output file #0 (../huberman-audio/mp3/Mwz8JprPeMc.mp3):
  Output stream #0:0 (audio): 274866 frames encoded (316645376 samples); 274867 packets muxed (114883186 bytes); 
  Total: 274867 packets (114883186 bytes) muxed
[AVIOContext @ 0x55e3d4fb0880] Statistics: 2 seeks, 440 writeouts
[AVIOContext @ 0x55e3d4f91880] Statistics: 116203756 bytes read, 0 seeks
